<svg width="25" height="24" viewBox="0 0 25 24" fill="none" xmlns="http://www.w3.org/2000/svg">
<path d="M9.83333 4V6.66667H3.16667V21.3333H17.8333V14.6667H20.5V22.6667C20.5 23.0203 20.3595 23.3594 20.1095 23.6095C19.8594 23.8595 19.5203 24 19.1667 24H1.83333C1.47971 24 1.14057 23.8595 0.890524 23.6095C0.640476 23.3594 0.5 23.0203 0.5 22.6667V5.33333C0.5 4.97971 0.640476 4.64057 0.890524 4.39052C1.14057 4.14048 1.47971 4 1.83333 4H9.83333ZM24.5 0V10.6667H21.8333V4.55067L11.4427 14.9427L9.55733 13.0573L19.9467 2.66667H13.8333V0H24.5Z" fill="#151515"/>
</svg>
